<?xml version="1.0" standalone="no"?>
<!DOCTYPE svg PUBLIC "-//W3C//DTD SVG 20010904//EN"
 "http://www.w3.org/TR/2001/REC-SVG-20010904/DTD/svg10.dtd">
<svg version="1.0" xmlns="http://www.w3.org/2000/svg"
 width="236.000000pt" height="236.000000pt" viewBox="0 0 236.000000 236.000000"
 preserveAspectRatio="xMidYMid meet">
<metadata>
Created by potrace 1.11, written by Peter Selinger 2001-2013
</metadata>
<g transform="translate(0.000000,236.000000) scale(0.100000,-0.100000)"
fill="#000000" stroke="none">
<path d="M552 1747 c-211 -26 -377 -163 -449 -369 -32 -91 -39 -246 -17 -353
20 -92 84 -221 138 -276 50 -51 102 -93 116 -95 6 -1 15 -2 21 -3 5 0 7 -6 3
-13 -4 -6 -3 -8 4 -4 6 3 13 2 17 -4 4 -6 11 -8 16 -5 5 4 9 1 9 -6 0 -6 8 -9
20 -6 11 3 23 0 27 -5 4 -7 1 -8 -7 -3 -9 6 -11 4 -5 -4 5 -9 10 -10 18 -2 13
13 30 15 22 2 -3 -6 3 -9 12 -9 10 0 27 -3 37 -7 15 -6 17 -5 11 5 -6 10 -4
11 6 4 21 -13 120 -14 112 -1 -4 6 -1 7 8 2 20 -13 49 -13 49 -1 0 6 5 4 10
-4 7 -11 10 -11 10 -2 0 7 5 10 10 7 6 -4 17 -2 25 5 10 8 15 8 20 -1 6 -8 9
-8 14 0 4 6 21 13 39 15 17 2 39 10 49 17 11 9 14 10 9 2 -11 -19 4 -16 27 4
11 10 17 12 12 4 -5 -9 -1 -9 16 2 13 9 29 16 34 17 6 0 11 5 11 10 3 22 4 24
15 13 13 -13 52 14 43 29 -3 5 0 7 8 6 7 -2 12 3 11 10 -2 6 1 12 6 12 17 0
-10 60 -34 76 -21 14 -23 21 -20 87 3 77 12 120 25 112 4 -3 19 6 33 19 14 13
32 26 39 29 8 3 9 6 1 6 -6 1 -9 9 -6 20 3 12 -3 24 -18 35 -20 13 -54 16
-209 16 -203 0 -233 -7 -225 -53 5 -23 42 -57 60 -54 5 1 9 -3 8 -10 -2 -7 4
-10 12 -7 21 8 29 -35 29 -150 0 -126 -9 -136 -123 -136 -75 0 -145 23 -191
62 -51 43 -109 163 -105 216 1 12 -2 22 -6 22 -4 0 -6 15 -5 33 1 17 -2 38 -7
45 -6 8 -5 12 3 12 10 0 10 3 1 14 -7 8 -8 16 -4 19 4 3 8 27 7 54 0 26 4 51
10 55 8 5 7 8 -1 8 -9 0 -10 7 -4 23 21 50 24 63 22 81 -2 13 1 16 11 10 9 -5
8 -2 -2 11 -8 10 -10 16 -5 13 6 -4 17 2 24 14 10 16 10 19 -1 12 -7 -4 -4 3
7 16 13 15 14 21 5 16 -8 -5 -4 2 10 15 14 13 19 20 10 14 -13 -8 -13 -8 -3 6
7 9 10 19 6 23 -4 4 1 4 12 0 15 -6 17 -4 12 10 -4 11 -3 15 4 11 5 -4 22 6
36 22 14 15 22 22 18 14 -6 -9 -4 -12 3 -7 7 4 12 14 12 21 0 9 6 12 15 9 8
-4 15 -1 15 5 0 6 5 11 11 11 5 0 7 -4 4 -10 -3 -5 -1 -10 4 -10 6 0 11 4 11
9 0 4 12 6 26 3 21 -4 25 -2 19 9 -7 11 -6 12 6 3 8 -6 21 -12 29 -13 71 -6
84 -9 88 -19 2 -6 10 -8 19 -5 11 4 14 2 9 -5 -5 -8 0 -12 13 -12 12 0 21 -4
21 -10 0 -5 5 -10 11 -10 6 0 30 -19 53 -42 23 -24 45 -44 49 -45 31 -11 49
-10 54 3 3 8 10 11 16 7 6 -4 8 0 4 10 -3 9 -1 18 6 21 9 3 9 5 0 5 -6 1 -9 9
-6 19 5 22 -47 160 -77 201 -25 35 -54 40 -98 14 -27 -15 -37 -16 -128 -2 -67
10 -119 12 -162 6z"/>
<path d="M1159 1748 c-31 -12 -17 -78 17 -78 8 0 13 -4 9 -9 -3 -6 4 -15 16
-22 64 -34 88 -78 184 -334 37 -99 145 -379 155 -400 4 -11 31 -78 58 -150 42
-109 55 -134 83 -153 22 -15 42 -21 61 -18 16 2 28 0 28 -7 0 -6 7 -2 16 9 8
10 13 13 9 7 -10 -20 13 -15 24 4 6 11 11 13 11 5 0 -7 5 -10 10 -7 6 4 7 12
3 18 -4 7 2 5 12 -3 11 -9 16 -10 11 -2 -4 7 -2 12 5 12 7 0 9 3 6 7 -4 3 -1
13 6 21 10 13 9 14 -3 7 -10 -6 -9 -2 3 12 10 11 17 24 15 29 -1 5 4 20 11 33
7 13 8 21 2 17 -7 -5 -9 -1 -5 8 3 9 10 16 16 16 5 0 7 4 3 9 -3 5 -1 12 4 16
6 3 8 12 5 19 -3 7 2 21 11 30 12 12 13 16 3 16 -10 0 -10 2 1 9 7 5 10 14 7
20 -4 6 -2 11 5 11 7 0 9 3 6 6 -3 4 -1 16 6 28 10 19 14 33 19 74 1 6 6 12
11 12 5 0 7 7 3 15 -3 10 1 15 12 16 11 0 12 2 4 6 -10 4 -10 8 -1 19 6 7 9
20 6 28 -3 8 1 17 8 20 8 3 12 12 9 19 -3 8 2 22 11 31 10 10 12 16 4 16 -8 0
-9 3 0 13 6 8 8 17 4 20 -3 4 -1 7 5 7 7 0 11 3 11 8 -1 4 0 9 1 12 4 11 10
36 12 55 2 11 10 26 18 33 13 12 13 13 0 6 -10 -5 -8 1 5 16 12 14 14 20 5 15
-10 -6 -9 -2 3 12 14 16 15 22 5 26 -10 4 -10 6 0 6 6 1 12 10 12 21 0 11 5
20 10 20 6 0 10 5 10 11 0 5 -6 7 -12 3 -10 -6 -10 -5 -1 8 7 8 10 18 6 21 -3
4 -1 7 6 7 7 0 9 5 6 10 -3 6 -2 10 3 10 5 0 9 7 10 15 1 8 3 22 4 30 1 8 8
15 16 15 8 0 12 6 8 15 -3 9 0 15 9 15 8 0 15 5 15 10 0 6 9 10 20 10 11 0 20
5 20 11 0 5 5 7 10 4 6 -3 10 3 10 15 0 12 4 18 10 15 5 -3 3 9 -4 27 l-14 33
-149 3 c-183 3 -193 1 -193 -39 0 -31 31 -68 58 -69 6 0 12 -6 13 -12 0 -7 2
-21 4 -31 9 -47 -182 -639 -207 -645 -8 -1 -19 13 -27 35 -7 21 -16 47 -21 58
-4 11 -22 56 -38 100 -81 214 -115 304 -134 351 -10 29 -20 58 -22 65 -1 8 -5
19 -8 25 -4 6 2 16 12 24 10 8 16 18 13 24 -4 5 1 7 10 3 10 -3 17 -2 17 3 0
6 7 10 15 10 9 0 18 7 21 15 4 8 11 12 17 8 6 -4 7 -1 1 8 -4 8 -10 23 -11 34
-2 11 -7 23 -12 28 -10 10 -455 15 -482 5z"/>
</g>
</svg>
